<?xml version="1.0" standalone="no"?>
<!DOCTYPE svg PUBLIC "-//W3C//DTD SVG 1.1//EN" "http://www.w3.org/Graphics/SVG/1.1/DTD/svg11.dtd">
<svg width="100%" height="100%" viewBox="0 0 150 150" version="1.1" xmlns="http://www.w3.org/2000/svg" xmlns:xlink="http://www.w3.org/1999/xlink" xml:space="preserve" style="fill-rule:evenodd;clip-rule:evenodd;stroke-linejoin:round;stroke-miterlimit:1.41421;">
    <path id="logo_shape copie" d="M116.216,150L41.1202,150C47.2829,136.167 53.6584,121.346 59.1101,107.763C73.8153,77.7434 77.0958,71.0465 77.2789,70.6727C99.559,80.8795 91.2975,67.2346 102.807,73.0634C112.086,77.7627 106.702,83.8212 106.702,83.8212L127.695,94.0158L142.879,63.0179L121.811,52.7867C121.811,52.7867 120.292,61.0786 110.452,56.3001C99.4777,50.9709 115.348,48.6396 91.6473,37.13C40.2936,13.3822 33.6452,21.9204 10.0976,42.393C9.64101,42.7563 16.663,45.8382 16.663,45.8382C16.663,45.8382 46.2548,31.8392 56.1285,60.455C55.7882,61.1497 52.3047,68.2611 37.9809,97.5023C29.6322,111.776 20.7586,127.946 12.8904,142.754C5.04362,136.568 3.57628e-05,126.984 3.57628e-05,116.216L3.57628e-05,33.7838C3.57628e-05,15.1255 15.1255,0 33.7838,0L116.216,0C134.874,0 150,15.1255 150,33.7838L150,116.216C150,134.874 134.874,150 116.216,150Z" style="fill:rgb(43,120,205);"/>
</svg>
